<?xml version="1.0" encoding="UTF-8" standalone="no"?>
<!DOCTYPE svg PUBLIC "-//W3C//DTD SVG 1.1//EN"
 "http://www.w3.org/Graphics/SVG/1.1/DTD/svg11.dtd">
<!-- Generated by graphviz version 2.36.0 (20140111.2315)
 -->
<!-- Title: G Pages: 1 -->
<svg width="393pt" height="474pt"
 viewBox="0.00 0.00 393.00 474.00" xmlns="http://www.w3.org/2000/svg" xmlns:xlink="http://www.w3.org/1999/xlink">
<g id="graph0" class="graph" transform="scale(1 1) rotate(0) translate(4 470)">
<title>G</title>
<polygon fill="white" stroke="none" points="-4,4 -4,-470 389,-470 389,4 -4,4"/>
<!-- yun -->
<g id="node1" class="node"><title>yun</title>
<polygon fill="none" stroke="black" points="249.157,-198 235.579,-216 208.421,-216 194.843,-198 208.421,-180 235.579,-180 249.157,-198"/>
<text text-anchor="middle" x="222" y="-194.3" font-family="Times,serif" font-size="14.00">yun</text>
</g>
<!-- ssr -->
<g id="node3" class="node"><title>ssr</title>
<polygon fill="none" stroke="black" points="384.25,-127.5 297.75,-127.5 297.75,-74.5 384.25,-74.5 384.25,-127.5"/>
<text text-anchor="middle" x="341" y="-112.3" font-family="Times,serif" font-size="14.00">opto&#45;isolated</text>
<text text-anchor="middle" x="341" y="-97.3" font-family="Times,serif" font-size="14.00">12A SSR</text>
<text text-anchor="middle" x="341" y="-82.3" font-family="Times,serif" font-size="14.00">+ heatsink</text>
</g>
<!-- yun&#45;&gt;ssr -->
<g id="edge10" class="edge"><title>yun&#45;&gt;ssr</title>
<path fill="none" stroke="black" d="M238.546,-183.791C254.629,-170.952 279.676,-150.956 300.979,-133.949"/>
<polygon fill="black" stroke="black" points="303.303,-136.573 308.934,-127.599 298.935,-131.103 303.303,-136.573"/>
</g>
<!-- lcd -->
<g id="node8" class="node"><title>lcd</title>
<polygon fill="none" stroke="black" points="30,-119 -0.000121419,-101 30,-83 60.0001,-101 30,-119"/>
<text text-anchor="middle" x="30" y="-97.3" font-family="Times,serif" font-size="14.00">lcd</text>
</g>
<!-- yun&#45;&gt;lcd -->
<g id="edge6" class="edge"><title>yun&#45;&gt;lcd</title>
<path fill="none" stroke="black" d="M200.681,-190.194C181.355,-183.761 152.268,-173.413 128,-162 100.613,-149.12 94.7156,-143.958 69,-128 63.2827,-124.452 57.1899,-120.484 51.5608,-116.736"/>
<polygon fill="black" stroke="black" points="53.4677,-113.801 43.2171,-111.122 49.5599,-119.609 53.4677,-113.801"/>
<text text-anchor="middle" x="148.5" y="-150.3" font-family="Times,serif" font-size="14.00">parallel</text>
</g>
<!-- led_on -->
<g id="node9" class="node"><title>led_on</title>
<ellipse fill="none" stroke="black" cx="128" cy="-101" rx="50.0684" ry="18"/>
<text text-anchor="middle" x="128" y="-97.3" font-family="Times,serif" font-size="14.00">green LED</text>
</g>
<!-- yun&#45;&gt;led_on -->
<g id="edge8" class="edge"><title>yun&#45;&gt;led_on</title>
<path fill="none" stroke="black" d="M206.897,-181.737C191.821,-166.5 168.454,-142.884 151.058,-125.303"/>
<polygon fill="black" stroke="black" points="153.531,-122.826 144.009,-118.179 148.555,-127.75 153.531,-122.826"/>
</g>
<!-- led_off -->
<g id="node10" class="node"><title>led_off</title>
<ellipse fill="none" stroke="black" cx="238" cy="-101" rx="41.394" ry="18"/>
<text text-anchor="middle" x="238" y="-97.3" font-family="Times,serif" font-size="14.00">red LED</text>
</g>
<!-- yun&#45;&gt;led_off -->
<g id="edge9" class="edge"><title>yun&#45;&gt;led_off</title>
<path fill="none" stroke="black" d="M224.935,-179.576C227.318,-165.427 230.719,-145.23 233.454,-128.991"/>
<polygon fill="black" stroke="black" points="236.928,-129.437 235.138,-118.994 230.025,-128.274 236.928,-129.437"/>
</g>
<!-- psu -->
<g id="node2" class="node"><title>psu</title>
<polygon fill="none" stroke="black" points="229,-304 175,-304 175,-268 229,-268 229,-304"/>
<text text-anchor="middle" x="202" y="-282.3" font-family="Times,serif" font-size="14.00">SMPS</text>
</g>
<!-- psu&#45;&gt;yun -->
<g id="edge4" class="edge"><title>psu&#45;&gt;yun</title>
<path fill="none" stroke="black" d="M204.975,-267.922C206.8,-257.979 209.3,-245.229 212,-234 212.643,-231.327 213.356,-228.552 214.097,-225.787"/>
<polygon fill="black" stroke="black" points="217.507,-226.586 216.826,-216.013 210.765,-224.703 217.507,-226.586"/>
<text text-anchor="middle" x="239" y="-238.3" font-family="Times,serif" font-size="14.00">5V @ 2A</text>
</g>
<!-- mains_out -->
<g id="node5" class="node"><title>mains_out</title>
<polygon fill="none" stroke="black" points="376.25,-36 305.75,-36 305.75,-0 376.25,-0 376.25,-36"/>
<text text-anchor="middle" x="341" y="-14.3" font-family="Times,serif" font-size="14.00">mains out</text>
</g>
<!-- ssr&#45;&gt;mains_out -->
<g id="edge5" class="edge"><title>ssr&#45;&gt;mains_out</title>
<path fill="none" stroke="black" d="M341,-74.3711C341,-65.4432 341,-55.3957 341,-46.3347"/>
<polygon fill="black" stroke="black" points="344.5,-46.2771 341,-36.2772 337.5,-46.2772 344.5,-46.2771"/>
</g>
<!-- mains_in -->
<g id="node4" class="node"><title>mains_in</title>
<polygon fill="none" stroke="black" points="332,-466 268,-466 268,-430 332,-430 332,-466"/>
<text text-anchor="middle" x="300" y="-444.3" font-family="Times,serif" font-size="14.00">mains in</text>
</g>
<!-- mains_fuse -->
<g id="node6" class="node"><title>mains_fuse</title>
<polygon fill="none" stroke="black" points="333,-378 267,-378 267,-342 333,-342 333,-378"/>
<text text-anchor="middle" x="300" y="-356.3" font-family="Times,serif" font-size="14.00">10A fuse</text>
</g>
<!-- mains_in&#45;&gt;mains_fuse -->
<g id="edge1" class="edge"><title>mains_in&#45;&gt;mains_fuse</title>
<path fill="none" stroke="black" d="M300,-429.597C300,-417.746 300,-401.817 300,-388.292"/>
<polygon fill="black" stroke="black" points="303.5,-388.084 300,-378.084 296.5,-388.084 303.5,-388.084"/>
<text text-anchor="middle" x="314" y="-400.3" font-family="Times,serif" font-size="14.00">240v</text>
</g>
<!-- mains_fuse&#45;&gt;psu -->
<g id="edge2" class="edge"><title>mains_fuse&#45;&gt;psu</title>
<path fill="none" stroke="black" d="M276.775,-341.937C263.932,-332.501 247.786,-320.639 233.788,-310.354"/>
<polygon fill="black" stroke="black" points="235.529,-307.29 225.398,-304.19 231.384,-312.931 235.529,-307.29"/>
</g>
<!-- mains_fuse&#45;&gt;ssr -->
<g id="edge3" class="edge"><title>mains_fuse&#45;&gt;ssr</title>
<path fill="none" stroke="black" d="M308.46,-341.589C313.235,-330.975 318.859,-316.995 322,-304 335.787,-246.955 339.676,-178.601 340.711,-137.821"/>
<polygon fill="black" stroke="black" points="344.215,-137.648 340.925,-127.577 337.217,-137.501 344.215,-137.648"/>
</g>
<!-- rfid -->
<g id="node7" class="node"><title>rfid</title>
<polygon fill="none" stroke="black" points="280,-304 246.865,-286 280,-268 313.135,-286 280,-304"/>
<text text-anchor="middle" x="280" y="-282.3" font-family="Times,serif" font-size="14.00">rfid</text>
</g>
<!-- rfid&#45;&gt;yun -->
<g id="edge7" class="edge"><title>rfid&#45;&gt;yun</title>
<path fill="none" stroke="black" d="M276.164,-258.938C274.083,-250.497 270.89,-241.409 266,-234 261.463,-227.126 255.138,-220.982 248.695,-215.832"/>
<polygon fill="black" stroke="black" points="272.741,-259.671 278.19,-268.757 279.597,-258.257 272.741,-259.671"/>
<polygon fill="black" stroke="black" points="250.723,-212.979 240.597,-209.861 246.569,-218.613 250.723,-212.979"/>
</g>
</g>
</svg>
