<?xml version="1.0" encoding="UTF-8" standalone="no"?>
<!DOCTYPE svg PUBLIC "-//W3C//DTD SVG 1.1//EN"
 "http://www.w3.org/Graphics/SVG/1.1/DTD/svg11.dtd">
<!-- Generated by graphviz version 2.36.0 (20140111.2315)
 -->
<!-- Title: G Pages: 1 -->
<svg width="352pt" height="620pt"
 viewBox="0.00 0.00 352.00 620.00" xmlns="http://www.w3.org/2000/svg" xmlns:xlink="http://www.w3.org/1999/xlink">
<g id="graph0" class="graph" transform="scale(1 1) rotate(0) translate(4 616)">
<title>G</title>
<polygon fill="white" stroke="none" points="-4,4 -4,-616 348,-616 348,4 -4,4"/>
<!-- start -->
<g id="node1" class="node"><title>start</title>
<ellipse fill="none" stroke="black" cx="249" cy="-594" rx="27" ry="18"/>
<text text-anchor="middle" x="249" y="-590.3" font-family="Times,serif" font-size="14.00">start</text>
</g>
<!-- lcd -->
<g id="node2" class="node"><title>lcd</title>
<polygon fill="none" stroke="black" points="290.25,-538 207.75,-538 207.75,-502 290.25,-502 290.25,-538"/>
<text text-anchor="middle" x="249" y="-516.3" font-family="Times,serif" font-size="14.00">update LCD</text>
</g>
<!-- start&#45;&gt;lcd -->
<g id="edge1" class="edge"><title>start&#45;&gt;lcd</title>
<path fill="none" stroke="black" d="M249,-575.937C249,-567.807 249,-557.876 249,-548.705"/>
<polygon fill="black" stroke="black" points="252.5,-548.441 249,-538.441 245.5,-548.441 252.5,-548.441"/>
</g>
<!-- check_rfid -->
<g id="node3" class="node"><title>check_rfid</title>
<polygon fill="none" stroke="black" points="124,-464 45.8073,-446 124,-428 202.193,-446 124,-464"/>
<text text-anchor="middle" x="124" y="-442.3" font-family="Times,serif" font-size="14.00">rfid present?</text>
</g>
<!-- lcd&#45;&gt;check_rfid -->
<g id="edge2" class="edge"><title>lcd&#45;&gt;check_rfid</title>
<path fill="none" stroke="black" d="M219.377,-501.937C199.682,-490.593 173.898,-475.741 154.105,-464.341"/>
<polygon fill="black" stroke="black" points="155.612,-461.17 145.2,-459.211 152.119,-467.235 155.612,-461.17"/>
</g>
<!-- wait -->
<g id="node4" class="node"><title>wait</title>
<polygon fill="none" stroke="black" points="240,-376 186,-376 186,-340 240,-340 240,-376"/>
<text text-anchor="middle" x="213" y="-354.3" font-family="Times,serif" font-size="14.00">wait</text>
</g>
<!-- check_rfid&#45;&gt;wait -->
<g id="edge4" class="edge"><title>check_rfid&#45;&gt;wait</title>
<path fill="none" stroke="black" d="M138.299,-431.183C151.643,-418.289 171.847,-398.766 187.879,-383.274"/>
<polygon fill="black" stroke="black" points="190.607,-385.505 195.367,-376.039 185.743,-380.471 190.607,-385.505"/>
<text text-anchor="middle" x="184" y="-398.3" font-family="Times,serif" font-size="14.00">no</text>
</g>
<!-- check_user -->
<g id="node5" class="node"><title>check_user</title>
<polygon fill="none" stroke="black" points="98,-376 28.7149,-358 98,-340 167.285,-358 98,-376"/>
<text text-anchor="middle" x="98" y="-354.3" font-family="Times,serif" font-size="14.00">valid user?</text>
</g>
<!-- check_rfid&#45;&gt;check_user -->
<g id="edge3" class="edge"><title>check_rfid&#45;&gt;check_user</title>
<path fill="none" stroke="black" d="M119.11,-428.824C115.345,-416.373 110.071,-398.927 105.736,-384.588"/>
<polygon fill="black" stroke="black" points="109.025,-383.372 102.781,-374.813 102.324,-385.398 109.025,-383.372"/>
<text text-anchor="middle" x="123.5" y="-398.3" font-family="Times,serif" font-size="14.00">yes</text>
</g>
<!-- wait&#45;&gt;lcd -->
<g id="edge5" class="edge"><title>wait&#45;&gt;lcd</title>
<path fill="none" stroke="black" d="M216.934,-376.485C223.206,-404.362 235.519,-459.084 242.928,-492.013"/>
<polygon fill="black" stroke="black" points="239.538,-492.889 245.147,-501.877 246.367,-491.353 239.538,-492.889"/>
</g>
<!-- bad_user -->
<g id="node10" class="node"><title>bad_user</title>
<polygon fill="none" stroke="black" points="274.5,-287 191.5,-287 191.5,-251 274.5,-251 274.5,-287"/>
<text text-anchor="middle" x="233" y="-265.3" font-family="Times,serif" font-size="14.00">not inducted</text>
</g>
<!-- check_user&#45;&gt;bad_user -->
<g id="edge7" class="edge"><title>check_user&#45;&gt;bad_user</title>
<path fill="none" stroke="black" d="M117.056,-344.72C138.082,-331.169 172.364,-309.076 198.209,-292.421"/>
<polygon fill="black" stroke="black" points="200.109,-295.36 206.619,-287.001 196.317,-289.476 200.109,-295.36"/>
<text text-anchor="middle" x="181" y="-310.3" font-family="Times,serif" font-size="14.00">no</text>
</g>
<!-- log -->
<g id="node11" class="node"><title>log</title>
<polygon fill="none" stroke="black" points="167,-288 63,-288 63,-250 167,-250 167,-288"/>
<text text-anchor="middle" x="115" y="-272.8" font-family="Times,serif" font-size="14.00">log user &amp; time</text>
<text text-anchor="middle" x="115" y="-257.8" font-family="Times,serif" font-size="14.00">to internet</text>
</g>
<!-- check_user&#45;&gt;log -->
<g id="edge6" class="edge"><title>check_user&#45;&gt;log</title>
<path fill="none" stroke="black" d="M101.198,-340.636C103.528,-328.712 106.743,-312.258 109.484,-298.231"/>
<polygon fill="black" stroke="black" points="112.982,-298.578 111.465,-288.092 106.112,-297.236 112.982,-298.578"/>
<text text-anchor="middle" x="117.5" y="-310.3" font-family="Times,serif" font-size="14.00">yes</text>
</g>
<!-- machine_running -->
<g id="node6" class="node"><title>machine_running</title>
<polygon fill="none" stroke="black" points="134,-212 28.4457,-194 134,-176 239.554,-194 134,-212"/>
<text text-anchor="middle" x="134" y="-190.3" font-family="Times,serif" font-size="14.00">machine running?</text>
</g>
<!-- same_user -->
<g id="node7" class="node"><title>same_user</title>
<polygon fill="none" stroke="black" points="210,-124 104.446,-106 210,-88 315.554,-106 210,-124"/>
<text text-anchor="middle" x="210" y="-102.3" font-family="Times,serif" font-size="14.00">user same as last?</text>
</g>
<!-- machine_running&#45;&gt;same_user -->
<g id="edge9" class="edge"><title>machine_running&#45;&gt;same_user</title>
<path fill="none" stroke="black" d="M147.238,-178.02C159.117,-164.578 176.713,-144.666 190.254,-129.344"/>
<polygon fill="black" stroke="black" points="192.914,-131.619 196.914,-121.808 187.669,-126.984 192.914,-131.619"/>
<text text-anchor="middle" x="188.5" y="-146.3" font-family="Times,serif" font-size="14.00">yes</text>
</g>
<!-- turn_on -->
<g id="node8" class="node"><title>turn_on</title>
<polygon fill="none" stroke="black" points="56.5,-124 1.5,-124 1.5,-88 56.5,-88 56.5,-124"/>
<text text-anchor="middle" x="29" y="-102.3" font-family="Times,serif" font-size="14.00">turn on</text>
</g>
<!-- machine_running&#45;&gt;turn_on -->
<g id="edge10" class="edge"><title>machine_running&#45;&gt;turn_on</title>
<path fill="none" stroke="black" d="M116.661,-178.799C100.729,-165.75 76.8015,-146.152 57.9681,-130.726"/>
<polygon fill="black" stroke="black" points="59.9382,-127.816 49.9842,-124.187 55.5027,-133.231 59.9382,-127.816"/>
<text text-anchor="middle" x="98" y="-146.3" font-family="Times,serif" font-size="14.00">no</text>
</g>
<!-- same_user&#45;&gt;lcd -->
<g id="edge11" class="edge"><title>same_user&#45;&gt;lcd</title>
<path fill="none" stroke="black" d="M240.112,-118.981C268.265,-132.401 306,-157.086 306,-193 306,-447 306,-447 306,-447 306,-465.658 294.088,-482.304 281.154,-494.879"/>
<polygon fill="black" stroke="black" points="278.574,-492.493 273.504,-501.796 283.269,-497.685 278.574,-492.493"/>
<text text-anchor="middle" x="313" y="-310.3" font-family="Times,serif" font-size="14.00">no</text>
</g>
<!-- turn_off -->
<g id="node9" class="node"><title>turn_off</title>
<polygon fill="none" stroke="black" points="330.5,-36 273.5,-36 273.5,-0 330.5,-0 330.5,-36"/>
<text text-anchor="middle" x="302" y="-14.3" font-family="Times,serif" font-size="14.00">turn off</text>
</g>
<!-- same_user&#45;&gt;turn_off -->
<g id="edge12" class="edge"><title>same_user&#45;&gt;turn_off</title>
<path fill="none" stroke="black" d="M225.607,-90.4113C239.44,-77.4798 259.912,-58.3432 276.182,-43.1341"/>
<polygon fill="black" stroke="black" points="278.869,-45.4135 283.784,-36.0278 274.089,-40.2998 278.869,-45.4135"/>
<text text-anchor="middle" x="273.5" y="-58.3" font-family="Times,serif" font-size="14.00">yes</text>
</g>
<!-- turn_on&#45;&gt;lcd -->
<g id="edge14" class="edge"><title>turn_on&#45;&gt;lcd</title>
<path fill="none" stroke="black" d="M19.5043,-124.215C11.0467,-141.18 0,-168.105 0,-193 0,-447 0,-447 0,-447 0,-487.693 124.275,-506.824 197.232,-514.549"/>
<polygon fill="black" stroke="black" points="197.3,-518.074 207.603,-515.608 198.01,-511.111 197.3,-518.074"/>
</g>
<!-- turn_off&#45;&gt;lcd -->
<g id="edge15" class="edge"><title>turn_off&#45;&gt;lcd</title>
<path fill="none" stroke="black" d="M316.219,-36.25C328.404,-52.8142 344,-79.0791 344,-105 344,-447 344,-447 344,-447 344,-472.282 322.365,-489.831 299.744,-501.27"/>
<polygon fill="black" stroke="black" points="297.961,-498.241 290.392,-505.655 300.932,-504.579 297.961,-498.241"/>
</g>
<!-- bad_user&#45;&gt;lcd -->
<g id="edge13" class="edge"><title>bad_user&#45;&gt;lcd</title>
<path fill="none" stroke="black" d="M237.864,-287.096C241.635,-301.168 246.609,-321.706 249,-340 257.184,-402.618 252.889,-418.86 254,-482 254.055,-485.139 253.911,-488.415 253.64,-491.664"/>
<polygon fill="black" stroke="black" points="250.146,-491.402 252.434,-501.746 257.097,-492.233 250.146,-491.402"/>
</g>
<!-- log&#45;&gt;machine_running -->
<g id="edge8" class="edge"><title>log&#45;&gt;machine_running</title>
<path fill="none" stroke="black" d="M119.697,-249.955C121.956,-241.273 124.708,-230.701 127.192,-221.157"/>
<polygon fill="black" stroke="black" points="130.615,-221.902 129.746,-211.343 123.84,-220.139 130.615,-221.902"/>
</g>
</g>
</svg>
