  0
SECTION
  2
BLOCKS
  0
ENDSEC
  0
SECTION
  2
ENTITIES
  0
LINE
  8
0
 10
-70
 11
-70
 20
-105
 21
-9.945
  0
LINE
  8
0
 10
-70
 11
-68.955
 20
-9.945
 21
-9.945
  0
LINE
  8
0
 10
-68.955
 11
-66.91
 20
-9.945
 21
-9.511
  0
LINE
  8
0
 10
-66.91
 11
-65
 20
-9.511
 21
-8.66
  0
LINE
  8
0
 10
-65
 11
-63.309
 20
-8.66
 21
-7.431
  0
LINE
  8
0
 10
-63.309
 11
-61.91
 20
-7.431
 21
-5.878
  0
LINE
  8
0
 10
-61.91
 11
-60.865
 20
-5.878
 21
-4.067
  0
LINE
  8
0
 10
-60.865
 11
-60.219
 20
-4.067
 21
-2.079
  0
LINE
  8
0
 10
-60.219
 11
-60
 20
-2.079
 21
0
  0
LINE
  8
0
 10
-60
 11
-60.219
 20
0
 21
2.079
  0
LINE
  8
0
 10
-60.219
 11
-60.865
 20
2.079
 21
4.067
  0
LINE
  8
0
 10
-60.865
 11
-61.91
 20
4.067
 21
5.878
  0
LINE
  8
0
 10
-61.91
 11
-63.309
 20
5.878
 21
7.431
  0
LINE
  8
0
 10
-63.309
 11
-65
 20
7.431
 21
8.66
  0
LINE
  8
0
 10
-65
 11
-66.91
 20
8.66
 21
9.511
  0
LINE
  8
0
 10
-66.91
 11
-68.955
 20
9.511
 21
9.945
  0
LINE
  8
0
 10
-68.955
 11
-70
 20
9.945
 21
9.945
  0
LINE
  8
0
 10
-70
 11
-70
 20
9.945
 21
105
  0
LINE
  8
0
 10
-70
 11
70
 20
105
 21
105
  0
LINE
  8
0
 10
70
 11
70
 20
105
 21
9.945
  0
LINE
  8
0
 10
70
 11
68.955
 20
9.945
 21
9.945
  0
LINE
  8
0
 10
68.955
 11
66.91
 20
9.945
 21
9.511
  0
LINE
  8
0
 10
66.91
 11
65
 20
9.511
 21
8.66
  0
LINE
  8
0
 10
65
 11
63.309
 20
8.66
 21
7.431
  0
LINE
  8
0
 10
63.309
 11
61.91
 20
7.431
 21
5.878
  0
LINE
  8
0
 10
61.91
 11
60.865
 20
5.878
 21
4.067
  0
LINE
  8
0
 10
60.865
 11
60.219
 20
4.067
 21
2.079
  0
LINE
  8
0
 10
60.219
 11
60
 20
2.079
 21
0
  0
LINE
  8
0
 10
60
 11
60.219
 20
0
 21
-2.079
  0
LINE
  8
0
 10
60.219
 11
60.865
 20
-2.079
 21
-4.067
  0
LINE
  8
0
 10
60.865
 11
61.91
 20
-4.067
 21
-5.878
  0
LINE
  8
0
 10
61.91
 11
63.309
 20
-5.878
 21
-7.431
  0
LINE
  8
0
 10
63.309
 11
65
 20
-7.431
 21
-8.66
  0
LINE
  8
0
 10
65
 11
66.91
 20
-8.66
 21
-9.511
  0
LINE
  8
0
 10
66.91
 11
68.955
 20
-9.511
 21
-9.945
  0
LINE
  8
0
 10
68.955
 11
70
 20
-9.945
 21
-9.945
  0
LINE
  8
0
 10
70
 11
70
 20
-9.945
 21
-105
  0
LINE
  8
0
 10
70
 11
-70
 20
-105
 21
-105
  0
LINE
  8
0
 10
-65.214
 11
-65.214
 20
-96.132
 21
-94.368
  0
LINE
  8
0
 10
-65.214
 11
-63.536
 20
-94.368
 21
-93.823
  0
LINE
  8
0
 10
-63.536
 11
-62.5
 20
-93.823
 21
-95.25
  0
LINE
  8
0
 10
-62.5
 11
-63.536
 20
-95.25
 21
-96.677
  0
LINE
  8
0
 10
-63.536
 11
-65.214
 20
-96.677
 21
-96.132
  0
LINE
  8
0
 10
-65.214
 11
-65.214
 20
94.368
 21
96.132
  0
LINE
  8
0
 10
-65.214
 11
-63.536
 20
96.132
 21
96.677
  0
LINE
  8
0
 10
-63.536
 11
-62.5
 20
96.677
 21
95.25
  0
LINE
  8
0
 10
-62.5
 11
-63.536
 20
95.25
 21
93.823
  0
LINE
  8
0
 10
-63.536
 11
-65.214
 20
93.823
 21
94.368
  0
LINE
  8
0
 10
-55.214
 11
-55.214
 20
-82.382
 21
-80.618
  0
LINE
  8
0
 10
-55.214
 11
-53.536
 20
-80.618
 21
-80.073
  0
LINE
  8
0
 10
-53.536
 11
-52.5
 20
-80.073
 21
-81.5
  0
LINE
  8
0
 10
-52.5
 11
-53.536
 20
-81.5
 21
-82.927
  0
LINE
  8
0
 10
-53.536
 11
-55.214
 20
-82.927
 21
-82.382
  0
LINE
  8
0
 10
-55.214
 11
-55.214
 20
-39.382
 21
-37.618
  0
LINE
  8
0
 10
-55.214
 11
-53.536
 20
-37.618
 21
-37.073
  0
LINE
  8
0
 10
-53.536
 11
-52.5
 20
-37.073
 21
-38.5
  0
LINE
  8
0
 10
-52.5
 11
-53.536
 20
-38.5
 21
-39.927
  0
LINE
  8
0
 10
-53.536
 11
-55.214
 20
-39.927
 21
-39.382
  0
LINE
  8
0
 10
-37.622
 11
-36.195
 20
26.809
 21
27.845
  0
LINE
  8
0
 10
-36.195
 11
-34.768
 20
27.845
 21
26.809
  0
LINE
  8
0
 10
-34.768
 11
-35.313
 20
26.809
 21
25.131
  0
LINE
  8
0
 10
-35.313
 11
-37.077
 20
25.131
 21
25.131
  0
LINE
  8
0
 10
-37.077
 11
-37.622
 20
25.131
 21
26.809
  0
LINE
  8
0
 10
-37.622
 11
-36.195
 20
94.119
 21
95.155
  0
LINE
  8
0
 10
-36.195
 11
-34.768
 20
95.155
 21
94.119
  0
LINE
  8
0
 10
-34.768
 11
-35.313
 20
94.119
 21
92.441
  0
LINE
  8
0
 10
-35.313
 11
-37.077
 20
92.441
 21
92.441
  0
LINE
  8
0
 10
-37.077
 11
-37.622
 20
92.441
 21
94.119
  0
LINE
  8
0
 10
34.768
 11
36.195
 20
26.809
 21
27.845
  0
LINE
  8
0
 10
36.195
 11
37.622
 20
27.845
 21
26.809
  0
LINE
  8
0
 10
37.622
 11
37.077
 20
26.809
 21
25.131
  0
LINE
  8
0
 10
37.077
 11
35.313
 20
25.131
 21
25.131
  0
LINE
  8
0
 10
35.313
 11
34.768
 20
25.131
 21
26.809
  0
LINE
  8
0
 10
34.768
 11
36.195
 20
94.119
 21
95.155
  0
LINE
  8
0
 10
36.195
 11
37.622
 20
95.155
 21
94.119
  0
LINE
  8
0
 10
37.622
 11
37.077
 20
94.119
 21
92.441
  0
LINE
  8
0
 10
37.077
 11
35.313
 20
92.441
 21
92.441
  0
LINE
  8
0
 10
35.313
 11
34.768
 20
92.441
 21
94.119
  0
LINE
  8
0
 10
52.786
 11
52.786
 20
-82.382
 21
-80.618
  0
LINE
  8
0
 10
52.786
 11
54.464
 20
-80.618
 21
-80.073
  0
LINE
  8
0
 10
54.464
 11
55.5
 20
-80.073
 21
-81.5
  0
LINE
  8
0
 10
55.5
 11
54.464
 20
-81.5
 21
-82.927
  0
LINE
  8
0
 10
54.464
 11
52.786
 20
-82.927
 21
-82.382
  0
LINE
  8
0
 10
52.786
 11
52.786
 20
-39.382
 21
-37.618
  0
LINE
  8
0
 10
52.786
 11
54.464
 20
-37.618
 21
-37.073
  0
LINE
  8
0
 10
54.464
 11
55.5
 20
-37.073
 21
-38.5
  0
LINE
  8
0
 10
55.5
 11
54.464
 20
-38.5
 21
-39.927
  0
LINE
  8
0
 10
54.464
 11
52.786
 20
-39.927
 21
-39.382
  0
LINE
  8
0
 10
62.786
 11
62.786
 20
-96.132
 21
-94.368
  0
LINE
  8
0
 10
62.786
 11
64.464
 20
-94.368
 21
-93.823
  0
LINE
  8
0
 10
64.464
 11
65.5
 20
-93.823
 21
-95.25
  0
LINE
  8
0
 10
65.5
 11
64.464
 20
-95.25
 21
-96.677
  0
LINE
  8
0
 10
64.464
 11
62.786
 20
-96.677
 21
-96.132
  0
LINE
  8
0
 10
62.786
 11
62.786
 20
94.368
 21
96.132
  0
LINE
  8
0
 10
62.786
 11
64.464
 20
96.132
 21
96.677
  0
LINE
  8
0
 10
64.464
 11
65.5
 20
96.677
 21
95.25
  0
LINE
  8
0
 10
65.5
 11
64.464
 20
95.25
 21
93.823
  0
LINE
  8
0
 10
64.464
 11
62.786
 20
93.823
 21
94.368
  0
ENDSEC
  0
SECTION
  2
OBJECTS
  0
DICTIONARY
  0
ENDSEC
  0
EOF
