  0
SECTION
  2
BLOCKS
  0
ENDSEC
  0
SECTION
  2
ENTITIES
  0
LINE
  8
0
 10
-70
 11
-70
 20
-105
 21
-9.945
  0
LINE
  8
0
 10
-70
 11
-68.955
 20
-9.945
 21
-9.945
  0
LINE
  8
0
 10
-68.955
 11
-66.91
 20
-9.945
 21
-9.511
  0
LINE
  8
0
 10
-66.91
 11
-65
 20
-9.511
 21
-8.66
  0
LINE
  8
0
 10
-65
 11
-63.309
 20
-8.66
 21
-7.431
  0
LINE
  8
0
 10
-63.309
 11
-61.91
 20
-7.431
 21
-5.878
  0
LINE
  8
0
 10
-61.91
 11
-60.865
 20
-5.878
 21
-4.067
  0
LINE
  8
0
 10
-60.865
 11
-60.219
 20
-4.067
 21
-2.079
  0
LINE
  8
0
 10
-60.219
 11
-60
 20
-2.079
 21
0
  0
LINE
  8
0
 10
-60
 11
-60.219
 20
0
 21
2.079
  0
LINE
  8
0
 10
-60.219
 11
-60.865
 20
2.079
 21
4.067
  0
LINE
  8
0
 10
-60.865
 11
-61.91
 20
4.067
 21
5.878
  0
LINE
  8
0
 10
-61.91
 11
-63.309
 20
5.878
 21
7.431
  0
LINE
  8
0
 10
-63.309
 11
-65
 20
7.431
 21
8.66
  0
LINE
  8
0
 10
-65
 11
-66.91
 20
8.66
 21
9.511
  0
LINE
  8
0
 10
-66.91
 11
-68.955
 20
9.511
 21
9.945
  0
LINE
  8
0
 10
-68.955
 11
-70
 20
9.945
 21
9.945
  0
LINE
  8
0
 10
-70
 11
-70
 20
9.945
 21
105
  0
LINE
  8
0
 10
-70
 11
70
 20
105
 21
105
  0
LINE
  8
0
 10
70
 11
70
 20
105
 21
9.945
  0
LINE
  8
0
 10
70
 11
68.955
 20
9.945
 21
9.945
  0
LINE
  8
0
 10
68.955
 11
66.91
 20
9.945
 21
9.511
  0
LINE
  8
0
 10
66.91
 11
65
 20
9.511
 21
8.66
  0
LINE
  8
0
 10
65
 11
63.309
 20
8.66
 21
7.431
  0
LINE
  8
0
 10
63.309
 11
61.91
 20
7.431
 21
5.878
  0
LINE
  8
0
 10
61.91
 11
60.865
 20
5.878
 21
4.067
  0
LINE
  8
0
 10
60.865
 11
60.219
 20
4.067
 21
2.079
  0
LINE
  8
0
 10
60.219
 11
60
 20
2.079
 21
0
  0
LINE
  8
0
 10
60
 11
60.219
 20
0
 21
-2.079
  0
LINE
  8
0
 10
60.219
 11
60.865
 20
-2.079
 21
-4.067
  0
LINE
  8
0
 10
60.865
 11
61.91
 20
-4.067
 21
-5.878
  0
LINE
  8
0
 10
61.91
 11
63.309
 20
-5.878
 21
-7.431
  0
LINE
  8
0
 10
63.309
 11
65
 20
-7.431
 21
-8.66
  0
LINE
  8
0
 10
65
 11
66.91
 20
-8.66
 21
-9.511
  0
LINE
  8
0
 10
66.91
 11
68.955
 20
-9.511
 21
-9.945
  0
LINE
  8
0
 10
68.955
 11
70
 20
-9.945
 21
-9.945
  0
LINE
  8
0
 10
70
 11
70
 20
-9.945
 21
-105
  0
LINE
  8
0
 10
70
 11
-70
 20
-105
 21
-105
  0
LINE
  8
0
 10
-65.214
 11
-65.214
 20
-96.132
 21
-94.368
  0
LINE
  8
0
 10
-65.214
 11
-63.536
 20
-94.368
 21
-93.823
  0
LINE
  8
0
 10
-63.536
 11
-62.5
 20
-93.823
 21
-95.25
  0
LINE
  8
0
 10
-62.5
 11
-63.536
 20
-95.25
 21
-96.677
  0
LINE
  8
0
 10
-63.536
 11
-65.214
 20
-96.677
 21
-96.132
  0
LINE
  8
0
 10
-65.214
 11
-65.214
 20
94.368
 21
96.132
  0
LINE
  8
0
 10
-65.214
 11
-63.536
 20
96.132
 21
96.677
  0
LINE
  8
0
 10
-63.536
 11
-62.5
 20
96.677
 21
95.25
  0
LINE
  8
0
 10
-62.5
 11
-63.536
 20
95.25
 21
93.823
  0
LINE
  8
0
 10
-63.536
 11
-65.214
 20
93.823
 21
94.368
  0
LINE
  8
0
 10
-58
 11
-58
 20
8
 21
32
  0
LINE
  8
0
 10
-58
 11
-50.27
 20
32
 21
32
  0
LINE
  8
0
 10
-50.27
 11
-50.27
 20
32
 21
37.215
  0
LINE
  8
0
 10
-50.27
 11
50.27
 20
37.215
 21
37.215
  0
LINE
  8
0
 10
50.27
 11
50.27
 20
37.215
 21
32
  0
LINE
  8
0
 10
50.27
 11
58
 20
32
 21
32
  0
LINE
  8
0
 10
58
 11
58
 20
32
 21
8
  0
LINE
  8
0
 10
58
 11
50.27
 20
8
 21
8
  0
LINE
  8
0
 10
50.27
 11
50.27
 20
8
 21
2.785
  0
LINE
  8
0
 10
50.27
 11
-50.27
 20
2.785
 21
2.785
  0
LINE
  8
0
 10
-50.27
 11
-50.27
 20
2.785
 21
8
  0
LINE
  8
0
 10
-50.27
 11
-58
 20
8
 21
8
  0
LINE
  8
0
 10
-55.214
 11
-55.214
 20
4.618
 21
6.382
  0
LINE
  8
0
 10
-55.214
 11
-53.536
 20
6.382
 21
6.927
  0
LINE
  8
0
 10
-53.536
 11
-52.5
 20
6.927
 21
5.5
  0
LINE
  8
0
 10
-52.5
 11
-53.536
 20
5.5
 21
4.073
  0
LINE
  8
0
 10
-53.536
 11
-55.214
 20
4.073
 21
4.618
  0
LINE
  8
0
 10
-55.214
 11
-55.214
 20
33.618
 21
35.382
  0
LINE
  8
0
 10
-55.214
 11
-53.536
 20
35.382
 21
35.927
  0
LINE
  8
0
 10
-53.536
 11
-52.5
 20
35.927
 21
34.5
  0
LINE
  8
0
 10
-52.5
 11
-53.536
 20
34.5
 21
33.073
  0
LINE
  8
0
 10
-53.536
 11
-55.214
 20
33.073
 21
33.618
  0
LINE
  8
0
 10
-45
 11
-44.672
 20
-20
 21
-16.881
  0
LINE
  8
0
 10
-44.672
 11
-43.703
 20
-16.881
 21
-13.899
  0
LINE
  8
0
 10
-43.703
 11
-42.135
 20
-13.899
 21
-11.183
  0
LINE
  8
0
 10
-42.135
 11
-40.037
 20
-11.183
 21
-8.853
  0
LINE
  8
0
 10
-40.037
 11
-37.5
 20
-8.853
 21
-7.01
  0
LINE
  8
0
 10
-37.5
 11
-34.635
 20
-7.01
 21
-5.734
  0
LINE
  8
0
 10
-34.635
 11
-31.568
 20
-5.734
 21
-5.082
  0
LINE
  8
0
 10
-31.568
 11
-28.432
 20
-5.082
 21
-5.082
  0
LINE
  8
0
 10
-28.432
 11
-25.365
 20
-5.082
 21
-5.734
  0
LINE
  8
0
 10
-25.365
 11
-22.5
 20
-5.734
 21
-7.01
  0
LINE
  8
0
 10
-22.5
 11
-19.963
 20
-7.01
 21
-8.853
  0
LINE
  8
0
 10
-19.963
 11
-17.865
 20
-8.853
 21
-11.183
  0
LINE
  8
0
 10
-17.865
 11
-16.297
 20
-11.183
 21
-13.899
  0
LINE
  8
0
 10
-16.297
 11
-15.328
 20
-13.899
 21
-16.881
  0
LINE
  8
0
 10
-15.328
 11
-15
 20
-16.881
 21
-20
  0
LINE
  8
0
 10
-15
 11
-15.328
 20
-20
 21
-23.119
  0
LINE
  8
0
 10
-15.328
 11
-16.297
 20
-23.119
 21
-26.101
  0
LINE
  8
0
 10
-16.297
 11
-17.865
 20
-26.101
 21
-28.817
  0
LINE
  8
0
 10
-17.865
 11
-19.963
 20
-28.817
 21
-31.147
  0
LINE
  8
0
 10
-19.963
 11
-22.5
 20
-31.147
 21
-32.99
  0
LINE
  8
0
 10
-22.5
 11
-25.365
 20
-32.99
 21
-34.266
  0
LINE
  8
0
 10
-25.365
 11
-28.432
 20
-34.266
 21
-34.918
  0
LINE
  8
0
 10
-28.432
 11
-31.568
 20
-34.918
 21
-34.918
  0
LINE
  8
0
 10
-31.568
 11
-34.635
 20
-34.918
 21
-34.266
  0
LINE
  8
0
 10
-34.635
 11
-37.5
 20
-34.266
 21
-32.99
  0
LINE
  8
0
 10
-37.5
 11
-40.037
 20
-32.99
 21
-31.147
  0
LINE
  8
0
 10
-40.037
 11
-42.135
 20
-31.147
 21
-28.817
  0
LINE
  8
0
 10
-42.135
 11
-43.703
 20
-28.817
 21
-26.101
  0
LINE
  8
0
 10
-43.703
 11
-44.672
 20
-26.101
 21
-23.119
  0
LINE
  8
0
 10
-44.672
 11
-45
 20
-23.119
 21
-20
  0
LINE
  8
0
 10
-18.677
 11
-18.132
 20
88.036
 21
89.714
  0
LINE
  8
0
 10
-18.132
 11
-16.368
 20
89.714
 21
89.714
  0
LINE
  8
0
 10
-16.368
 11
-15.823
 20
89.714
 21
88.036
  0
LINE
  8
0
 10
-15.823
 11
-17.25
 20
88.036
 21
87
  0
LINE
  8
0
 10
-17.25
 11
-18.677
 20
87
 21
88.036
  0
LINE
  8
0
 10
-13.927
 11
-13.382
 20
51.036
 21
52.714
  0
LINE
  8
0
 10
-13.382
 11
-11.618
 20
52.714
 21
52.714
  0
LINE
  8
0
 10
-11.618
 11
-11.073
 20
52.714
 21
51.036
  0
LINE
  8
0
 10
-11.073
 11
-12.5
 20
51.036
 21
50
  0
LINE
  8
0
 10
-12.5
 11
-13.927
 20
50
 21
51.036
  0
LINE
  8
0
 10
11.073
 11
11.618
 20
51.036
 21
52.714
  0
LINE
  8
0
 10
11.618
 11
13.382
 20
52.714
 21
52.714
  0
LINE
  8
0
 10
13.382
 11
13.927
 20
52.714
 21
51.036
  0
LINE
  8
0
 10
13.927
 11
12.5
 20
51.036
 21
50
  0
LINE
  8
0
 10
12.5
 11
11.073
 20
50
 21
51.036
  0
LINE
  8
0
 10
15
 11
15.328
 20
-20
 21
-16.881
  0
LINE
  8
0
 10
15.328
 11
16.297
 20
-16.881
 21
-13.899
  0
LINE
  8
0
 10
16.297
 11
17.865
 20
-13.899
 21
-11.183
  0
LINE
  8
0
 10
17.865
 11
19.963
 20
-11.183
 21
-8.853
  0
LINE
  8
0
 10
19.963
 11
22.5
 20
-8.853
 21
-7.01
  0
LINE
  8
0
 10
22.5
 11
25.365
 20
-7.01
 21
-5.734
  0
LINE
  8
0
 10
25.365
 11
28.432
 20
-5.734
 21
-5.082
  0
LINE
  8
0
 10
28.432
 11
31.568
 20
-5.082
 21
-5.082
  0
LINE
  8
0
 10
31.568
 11
34.635
 20
-5.082
 21
-5.734
  0
LINE
  8
0
 10
34.635
 11
37.5
 20
-5.734
 21
-7.01
  0
LINE
  8
0
 10
37.5
 11
40.037
 20
-7.01
 21
-8.853
  0
LINE
  8
0
 10
40.037
 11
42.135
 20
-8.853
 21
-11.183
  0
LINE
  8
0
 10
42.135
 11
43.703
 20
-11.183
 21
-13.899
  0
LINE
  8
0
 10
43.703
 11
44.672
 20
-13.899
 21
-16.881
  0
LINE
  8
0
 10
44.672
 11
45
 20
-16.881
 21
-20
  0
LINE
  8
0
 10
45
 11
44.672
 20
-20
 21
-23.119
  0
LINE
  8
0
 10
44.672
 11
43.703
 20
-23.119
 21
-26.101
  0
LINE
  8
0
 10
43.703
 11
42.135
 20
-26.101
 21
-28.817
  0
LINE
  8
0
 10
42.135
 11
40.037
 20
-28.817
 21
-31.147
  0
LINE
  8
0
 10
40.037
 11
37.5
 20
-31.147
 21
-32.99
  0
LINE
  8
0
 10
37.5
 11
34.635
 20
-32.99
 21
-34.266
  0
LINE
  8
0
 10
34.635
 11
31.568
 20
-34.266
 21
-34.918
  0
LINE
  8
0
 10
31.568
 11
28.432
 20
-34.918
 21
-34.918
  0
LINE
  8
0
 10
28.432
 11
25.365
 20
-34.918
 21
-34.266
  0
LINE
  8
0
 10
25.365
 11
22.5
 20
-34.266
 21
-32.99
  0
LINE
  8
0
 10
22.5
 11
19.963
 20
-32.99
 21
-31.147
  0
LINE
  8
0
 10
19.963
 11
17.865
 20
-31.147
 21
-28.817
  0
LINE
  8
0
 10
17.865
 11
16.297
 20
-28.817
 21
-26.101
  0
LINE
  8
0
 10
16.297
 11
15.328
 20
-26.101
 21
-23.119
  0
LINE
  8
0
 10
15.328
 11
15
 20
-23.119
 21
-20
  0
LINE
  8
0
 10
15.823
 11
16.368
 20
88.036
 21
89.714
  0
LINE
  8
0
 10
16.368
 11
18.132
 20
89.714
 21
89.714
  0
LINE
  8
0
 10
18.132
 11
18.677
 20
89.714
 21
88.036
  0
LINE
  8
0
 10
18.677
 11
17.25
 20
88.036
 21
87
  0
LINE
  8
0
 10
17.25
 11
15.823
 20
87
 21
88.036
  0
LINE
  8
0
 10
52.786
 11
52.786
 20
4.618
 21
6.382
  0
LINE
  8
0
 10
52.786
 11
54.464
 20
6.382
 21
6.927
  0
LINE
  8
0
 10
54.464
 11
55.5
 20
6.927
 21
5.5
  0
LINE
  8
0
 10
55.5
 11
54.464
 20
5.5
 21
4.073
  0
LINE
  8
0
 10
54.464
 11
52.786
 20
4.073
 21
4.618
  0
LINE
  8
0
 10
52.786
 11
52.786
 20
33.618
 21
35.382
  0
LINE
  8
0
 10
52.786
 11
54.464
 20
35.382
 21
35.927
  0
LINE
  8
0
 10
54.464
 11
55.5
 20
35.927
 21
34.5
  0
LINE
  8
0
 10
55.5
 11
54.464
 20
34.5
 21
33.073
  0
LINE
  8
0
 10
54.464
 11
52.786
 20
33.073
 21
33.618
  0
LINE
  8
0
 10
62.786
 11
62.786
 20
-96.132
 21
-94.368
  0
LINE
  8
0
 10
62.786
 11
64.464
 20
-94.368
 21
-93.823
  0
LINE
  8
0
 10
64.464
 11
65.5
 20
-93.823
 21
-95.25
  0
LINE
  8
0
 10
65.5
 11
64.464
 20
-95.25
 21
-96.677
  0
LINE
  8
0
 10
64.464
 11
62.786
 20
-96.677
 21
-96.132
  0
LINE
  8
0
 10
62.786
 11
62.786
 20
94.368
 21
96.132
  0
LINE
  8
0
 10
62.786
 11
64.464
 20
96.132
 21
96.677
  0
LINE
  8
0
 10
64.464
 11
65.5
 20
96.677
 21
95.25
  0
LINE
  8
0
 10
65.5
 11
64.464
 20
95.25
 21
93.823
  0
LINE
  8
0
 10
64.464
 11
62.786
 20
93.823
 21
94.368
  0
ENDSEC
  0
SECTION
  2
OBJECTS
  0
DICTIONARY
  0
ENDSEC
  0
EOF
