  0
SECTION
  2
BLOCKS
  0
ENDSEC
  0
SECTION
  2
ENTITIES
  0
LINE
  8
0
 10
-45.7
 11
-45.7
 20
4.4
 21
35.6
  0
LINE
  8
0
 10
-45.7
 11
45.7
 20
35.6
 21
35.6
  0
LINE
  8
0
 10
45.7
 11
45.7
 20
35.6
 21
4.4
  0
LINE
  8
0
 10
45.7
 11
-45.7
 20
4.4
 21
4.4
  0
LINE
  8
0
 10
-38
 11
-37.768
 20
-20
 21
-18.085
  0
LINE
  8
0
 10
-37.768
 11
-37.084
 20
-18.085
 21
-16.282
  0
LINE
  8
0
 10
-37.084
 11
-35.988
 20
-16.282
 21
-14.695
  0
LINE
  8
0
 10
-35.988
 11
-34.545
 20
-14.695
 21
-13.416
  0
LINE
  8
0
 10
-34.545
 11
-32.837
 20
-13.416
 21
-12.52
  0
LINE
  8
0
 10
-32.837
 11
-30.964
 20
-12.52
 21
-12.058
  0
LINE
  8
0
 10
-30.964
 11
-29.036
 20
-12.058
 21
-12.058
  0
LINE
  8
0
 10
-29.036
 11
-27.163
 20
-12.058
 21
-12.52
  0
LINE
  8
0
 10
-27.163
 11
-25.455
 20
-12.52
 21
-13.416
  0
LINE
  8
0
 10
-25.455
 11
-24.012
 20
-13.416
 21
-14.695
  0
LINE
  8
0
 10
-24.012
 11
-22.916
 20
-14.695
 21
-16.282
  0
LINE
  8
0
 10
-22.916
 11
-22.232
 20
-16.282
 21
-18.085
  0
LINE
  8
0
 10
-22.232
 11
-22
 20
-18.085
 21
-20
  0
LINE
  8
0
 10
-22
 11
-22.232
 20
-20
 21
-21.915
  0
LINE
  8
0
 10
-22.232
 11
-22.916
 20
-21.915
 21
-23.718
  0
LINE
  8
0
 10
-22.916
 11
-24.012
 20
-23.718
 21
-25.305
  0
LINE
  8
0
 10
-24.012
 11
-25.455
 20
-25.305
 21
-26.584
  0
LINE
  8
0
 10
-25.455
 11
-27.163
 20
-26.584
 21
-27.48
  0
LINE
  8
0
 10
-27.163
 11
-29.036
 20
-27.48
 21
-27.942
  0
LINE
  8
0
 10
-29.036
 11
-30.964
 20
-27.942
 21
-27.942
  0
LINE
  8
0
 10
-30.964
 11
-32.837
 20
-27.942
 21
-27.48
  0
LINE
  8
0
 10
-32.837
 11
-34.545
 20
-27.48
 21
-26.584
  0
LINE
  8
0
 10
-34.545
 11
-35.988
 20
-26.584
 21
-25.305
  0
LINE
  8
0
 10
-35.988
 11
-37.084
 20
-25.305
 21
-23.718
  0
LINE
  8
0
 10
-37.084
 11
-37.768
 20
-23.718
 21
-21.915
  0
LINE
  8
0
 10
-37.768
 11
-38
 20
-21.915
 21
-20
  0
LINE
  8
0
 10
20
 11
20.219
 20
-20
 21
-17.921
  0
LINE
  8
0
 10
20.219
 11
20.865
 20
-17.921
 21
-15.933
  0
LINE
  8
0
 10
20.865
 11
21.91
 20
-15.933
 21
-14.122
  0
LINE
  8
0
 10
21.91
 11
23.309
 20
-14.122
 21
-12.569
  0
LINE
  8
0
 10
23.309
 11
25
 20
-12.569
 21
-11.34
  0
LINE
  8
0
 10
25
 11
26.91
 20
-11.34
 21
-10.489
  0
LINE
  8
0
 10
26.91
 11
28.955
 20
-10.489
 21
-10.055
  0
LINE
  8
0
 10
28.955
 11
31.045
 20
-10.055
 21
-10.055
  0
LINE
  8
0
 10
31.045
 11
33.09
 20
-10.055
 21
-10.489
  0
LINE
  8
0
 10
33.09
 11
35
 20
-10.489
 21
-11.34
  0
LINE
  8
0
 10
35
 11
36.691
 20
-11.34
 21
-12.569
  0
LINE
  8
0
 10
36.691
 11
38.09
 20
-12.569
 21
-14.122
  0
LINE
  8
0
 10
38.09
 11
39.135
 20
-14.122
 21
-15.933
  0
LINE
  8
0
 10
39.135
 11
39.781
 20
-15.933
 21
-17.921
  0
LINE
  8
0
 10
39.781
 11
40
 20
-17.921
 21
-20
  0
LINE
  8
0
 10
40
 11
39.781
 20
-20
 21
-22.079
  0
LINE
  8
0
 10
39.781
 11
39.135
 20
-22.079
 21
-24.067
  0
LINE
  8
0
 10
39.135
 11
38.09
 20
-24.067
 21
-25.878
  0
LINE
  8
0
 10
38.09
 11
36.691
 20
-25.878
 21
-27.431
  0
LINE
  8
0
 10
36.691
 11
35
 20
-27.431
 21
-28.66
  0
LINE
  8
0
 10
35
 11
33.09
 20
-28.66
 21
-29.511
  0
LINE
  8
0
 10
33.09
 11
31.045
 20
-29.511
 21
-29.945
  0
LINE
  8
0
 10
31.045
 11
28.955
 20
-29.945
 21
-29.945
  0
LINE
  8
0
 10
28.955
 11
26.91
 20
-29.945
 21
-29.511
  0
LINE
  8
0
 10
26.91
 11
25
 20
-29.511
 21
-28.66
  0
LINE
  8
0
 10
25
 11
23.309
 20
-28.66
 21
-27.431
  0
LINE
  8
0
 10
23.309
 11
21.91
 20
-27.431
 21
-25.878
  0
LINE
  8
0
 10
21.91
 11
20.865
 20
-25.878
 21
-24.067
  0
LINE
  8
0
 10
20.865
 11
20.219
 20
-24.067
 21
-22.079
  0
LINE
  8
0
 10
20.219
 11
20
 20
-22.079
 21
-20
  0
ENDSEC
  0
SECTION
  2
OBJECTS
  0
DICTIONARY
  0
ENDSEC
  0
EOF
