  0
SECTION
  2
BLOCKS
  0
ENDSEC
  0
SECTION
  2
ENTITIES
  0
LINE
  8
0
 10
-75.214
 11
-75.214
 20
-119.882
 21
-118.118
  0
LINE
  8
0
 10
-75.214
 11
-73.536
 20
-118.118
 21
-117.573
  0
LINE
  8
0
 10
-73.536
 11
-72.5
 20
-117.573
 21
-119
  0
LINE
  8
0
 10
-72.5
 11
-73.536
 20
-119
 21
-120.427
  0
LINE
  8
0
 10
-73.536
 11
-75.214
 20
-120.427
 21
-119.882
  0
LINE
  8
0
 10
-45.7
 11
-45.7
 20
4.4
 21
35.6
  0
LINE
  8
0
 10
-45.7
 11
45.7
 20
35.6
 21
35.6
  0
LINE
  8
0
 10
45.7
 11
45.7
 20
35.6
 21
4.4
  0
LINE
  8
0
 10
45.7
 11
-45.7
 20
4.4
 21
4.4
  0
LINE
  8
0
 10
-38
 11
-37.768
 20
-20
 21
-18.085
  0
LINE
  8
0
 10
-37.768
 11
-37.084
 20
-18.085
 21
-16.282
  0
LINE
  8
0
 10
-37.084
 11
-35.988
 20
-16.282
 21
-14.695
  0
LINE
  8
0
 10
-35.988
 11
-34.545
 20
-14.695
 21
-13.416
  0
LINE
  8
0
 10
-34.545
 11
-32.837
 20
-13.416
 21
-12.52
  0
LINE
  8
0
 10
-32.837
 11
-30.964
 20
-12.52
 21
-12.058
  0
LINE
  8
0
 10
-30.964
 11
-29.036
 20
-12.058
 21
-12.058
  0
LINE
  8
0
 10
-29.036
 11
-27.163
 20
-12.058
 21
-12.52
  0
LINE
  8
0
 10
-27.163
 11
-25.455
 20
-12.52
 21
-13.416
  0
LINE
  8
0
 10
-25.455
 11
-24.012
 20
-13.416
 21
-14.695
  0
LINE
  8
0
 10
-24.012
 11
-22.916
 20
-14.695
 21
-16.282
  0
LINE
  8
0
 10
-22.916
 11
-22.232
 20
-16.282
 21
-18.085
  0
LINE
  8
0
 10
-22.232
 11
-22
 20
-18.085
 21
-20
  0
LINE
  8
0
 10
-22
 11
-22.232
 20
-20
 21
-21.915
  0
LINE
  8
0
 10
-22.232
 11
-22.916
 20
-21.915
 21
-23.718
  0
LINE
  8
0
 10
-22.916
 11
-24.012
 20
-23.718
 21
-25.305
  0
LINE
  8
0
 10
-24.012
 11
-25.455
 20
-25.305
 21
-26.584
  0
LINE
  8
0
 10
-25.455
 11
-27.163
 20
-26.584
 21
-27.48
  0
LINE
  8
0
 10
-27.163
 11
-29.036
 20
-27.48
 21
-27.942
  0
LINE
  8
0
 10
-29.036
 11
-30.964
 20
-27.942
 21
-27.942
  0
LINE
  8
0
 10
-30.964
 11
-32.837
 20
-27.942
 21
-27.48
  0
LINE
  8
0
 10
-32.837
 11
-34.545
 20
-27.48
 21
-26.584
  0
LINE
  8
0
 10
-34.545
 11
-35.988
 20
-26.584
 21
-25.305
  0
LINE
  8
0
 10
-35.988
 11
-37.084
 20
-25.305
 21
-23.718
  0
LINE
  8
0
 10
-37.084
 11
-37.768
 20
-23.718
 21
-21.915
  0
LINE
  8
0
 10
-37.768
 11
-38
 20
-21.915
 21
-20
  0
LINE
  8
0
 10
25.598
 11
25.598
 20
-20.936
 21
-19.064
  0
LINE
  8
0
 10
25.598
 11
26.359
 20
-19.064
 21
-17.355
  0
LINE
  8
0
 10
26.359
 11
27.75
 20
-17.355
 21
-16.103
  0
LINE
  8
0
 10
27.75
 11
29.53
 20
-16.103
 21
-15.525
  0
LINE
  8
0
 10
29.53
 11
31.391
 20
-15.525
 21
-15.72
  0
LINE
  8
0
 10
31.391
 11
33.011
 20
-15.72
 21
-16.656
  0
LINE
  8
0
 10
33.011
 11
34.111
 20
-16.656
 21
-18.17
  0
LINE
  8
0
 10
34.111
 11
34.5
 20
-18.17
 21
-20
  0
LINE
  8
0
 10
34.5
 11
34.111
 20
-20
 21
-21.83
  0
LINE
  8
0
 10
34.111
 11
33.011
 20
-21.83
 21
-23.344
  0
LINE
  8
0
 10
33.011
 11
31.391
 20
-23.344
 21
-24.28
  0
LINE
  8
0
 10
31.391
 11
29.53
 20
-24.28
 21
-24.475
  0
LINE
  8
0
 10
29.53
 11
27.75
 20
-24.475
 21
-23.897
  0
LINE
  8
0
 10
27.75
 11
26.359
 20
-23.897
 21
-22.645
  0
LINE
  8
0
 10
26.359
 11
25.598
 20
-22.645
 21
-20.936
  0
LINE
  8
0
 10
72.786
 11
72.786
 20
118.118
 21
119.882
  0
LINE
  8
0
 10
72.786
 11
74.464
 20
119.882
 21
120.427
  0
LINE
  8
0
 10
74.464
 11
75.5
 20
120.427
 21
119
  0
LINE
  8
0
 10
75.5
 11
74.464
 20
119
 21
117.573
  0
LINE
  8
0
 10
74.464
 11
72.786
 20
117.573
 21
118.118
  0
ENDSEC
  0
SECTION
  2
OBJECTS
  0
DICTIONARY
  0
ENDSEC
  0
EOF
