<?xml version="1.0" encoding="UTF-8" standalone="no"?>
<!-- Created with Inkscape (http://www.inkscape.org/) -->

<svg
   xmlns:dc="http://purl.org/dc/elements/1.1/"
   xmlns:cc="http://creativecommons.org/ns#"
   xmlns:rdf="http://www.w3.org/1999/02/22-rdf-syntax-ns#"
   xmlns:svg="http://www.w3.org/2000/svg"
   xmlns="http://www.w3.org/2000/svg"
   xmlns:sodipodi="http://sodipodi.sourceforge.net/DTD/sodipodi-0.dtd"
   xmlns:inkscape="http://www.inkscape.org/namespaces/inkscape"
   width="744.09448819"
   height="1052.3622047"
   id="svg4586"
   version="1.1"
   inkscape:version="0.48.4 r9939"
   sodipodi:docname="rfidlogo.svg">
  <defs
     id="defs4588" />
  <sodipodi:namedview
     id="base"
     pagecolor="#ffffff"
     bordercolor="#666666"
     borderopacity="1.0"
     inkscape:pageopacity="0.0"
     inkscape:pageshadow="2"
     inkscape:zoom="0.49497475"
     inkscape:cx="292.79827"
     inkscape:cy="809.5908"
     inkscape:document-units="px"
     inkscape:current-layer="layer1"
     showgrid="false"
     inkscape:window-width="1615"
     inkscape:window-height="1026"
     inkscape:window-x="65"
     inkscape:window-y="24"
     inkscape:window-maximized="1" />
  <metadata
     id="metadata4591">
    <rdf:RDF>
      <cc:Work
         rdf:about="">
        <dc:format>image/svg+xml</dc:format>
        <dc:type
           rdf:resource="http://purl.org/dc/dcmitype/StillImage" />
        <dc:title />
      </cc:Work>
    </rdf:RDF>
  </metadata>
  <g
     inkscape:label="Layer 1"
     inkscape:groupmode="layer"
     id="layer1">
    <path
       style="fill:#000000"
       d="m 352.43992,973.9674 c -11.05132,-8.01865 -20.5942,-22.02425 -24.01259,-35.24204 -2.17059,-8.39294 -2.17059,-23.46338 0,-31.85632 2.53842,-9.81525 9.14684,-21.30776 16.40617,-28.53151 10.24081,-10.19061 16.18862,-12.09111 16.99942,-5.43182 0.22999,1.88898 -1.21974,3.7612 -6.73855,8.70231 -8.89167,7.96091 -12.69729,13.50494 -16.22381,23.6349 -2.30992,6.63525 -2.80392,9.72802 -2.80392,17.55428 0,7.82626 0.494,10.91903 2.80392,17.55428 3.51153,10.08689 7.29636,15.62042 16.16577,23.63483 6.94621,6.27661 8.34311,9.07133 5.80355,11.61089 -1.87903,1.87903 -4.17914,1.43275 -8.39996,-1.6298 z m 66.79996,1.6298 c -2.58783,-2.58783 -1.18968,-5.40159 5.78854,-11.64935 8.84869,-7.92242 12.65825,-13.4779 16.18078,-23.59637 5.27267,-15.14575 3.17346,-33.48486 -5.36104,-46.83503 -1.68093,-2.62941 -6.41246,-7.8733 -10.51451,-11.65308 -7.78455,-7.17298 -8.94001,-10.01658 -5.05872,-12.4495 2.50085,-1.56761 7.30747,1.29737 14.97133,8.92366 7.25933,7.22375 13.86775,18.71626 16.40617,28.53151 2.17059,8.39294 2.17059,23.46338 0,31.85632 -3.41839,13.21779 -12.96127,27.22339 -24.01259,35.24204 -4.22082,3.06255 -6.52093,3.50883 -8.39996,1.6298 z m -55.28721,-17.72199 c -8.337,-6.0408 -13.01991,-12.93757 -16.30248,-24.00951 -4.74244,-15.99603 2.33061,-36.18745 16.14061,-46.07658 5.83296,-4.17688 8.04856,-4.79244 10.04908,-2.79192 2.43258,2.43258 1.27588,5.49761 -3.55,9.4068 -7.96897,6.45524 -11.66149,11.9345 -13.88086,20.59754 -3.44609,13.45141 1.78964,27.02805 14.02642,36.37152 5.05986,3.86349 6.10803,7.54908 2.67018,9.38896 -2.84359,1.52184 -3.24187,1.39623 -9.15295,-2.88681 z m 42.28721,2.72199 c -2.43258,-2.43258 -1.27588,-5.49761 3.55,-9.4068 7.96897,-6.45524 11.66149,-11.9345 13.88086,-20.59754 3.44609,-13.45141 -1.78964,-27.02805 -14.02642,-36.37152 -5.41,-4.13084 -6.19874,-7.7406 -2.09946,-9.60836 2.2074,-1.00576 3.1393,-0.70449 7.84435,2.53601 8.50393,5.85688 13.72024,13.3811 17.04036,24.57971 4.74244,15.99603 -2.33061,36.18745 -16.14061,46.07658 -5.83296,4.17688 -8.04856,4.79244 -10.04908,2.79192 z M 375.325,941.88878 c -12.1895,-8.83003 -12.1895,-29.35313 0,-38.18316 2.20823,-1.59963 5.01734,-2.90842 6.24247,-2.90842 5.12354,0 5.77609,6.42915 0.91653,9.02991 -3.44844,1.84555 -7.44412,8.80733 -7.44412,12.97009 0,4.16276 3.99568,11.12454 7.44412,12.97009 4.85956,2.60076 4.20701,9.02991 -0.91653,9.02991 -1.22513,0 -4.03424,-1.30879 -6.24247,-2.90842 z m 19.72566,1.42141 c -1.7713,-2.13428 -0.49539,-5.91568 2.5451,-7.5429 3.44844,-1.84555 7.44412,-8.80733 7.44412,-12.97009 0,-4.16276 -3.99568,-11.12454 -7.44412,-12.97009 -4.85956,-2.60076 -4.20701,-9.02991 0.91653,-9.02991 3.77552,0 10.05334,5.4073 12.89251,11.10476 3.59375,7.21172 3.59375,14.57876 0,21.79048 -4.19401,8.41628 -13.03582,13.61608 -16.35414,9.61775 z m -9.83647,-15.82744 c -2.8208,-3.00261 -2.76512,-6.78189 0.14014,-9.51124 3.00261,-2.8208 6.78189,-2.76512 9.51124,0.14014 2.8208,3.00261 2.76512,6.78189 -0.14014,9.51124 -3.00261,2.8208 -6.78189,2.76512 -9.51124,-0.14014 z"
       id="path4659"
       inkscape:connector-curvature="0"
       inkscape:transform-center-x="150"
       inkscape:transform-center-y="-22.142857" />
    <rect
       style="fill:none;stroke:#000000;stroke-opacity:1"
       id="rect4661"
       width="212.14287"
       height="177.14287"
       x="283.96844"
       y="834.28723"
       ry="25" />
    <path
       inkscape:transform-center-y="-22.142857"
       inkscape:transform-center-x="150"
       inkscape:connector-curvature="0"
       id="path4708"
       d="m 576.43992,973.9674 c -11.05132,-8.01865 -20.5942,-22.02425 -24.01259,-35.24204 -2.17059,-8.39294 -2.17059,-23.46338 0,-31.85632 2.53842,-9.81525 9.14684,-21.30776 16.40617,-28.53151 10.24081,-10.19061 16.18862,-12.09111 16.99942,-5.43182 0.22999,1.88898 -1.21974,3.7612 -6.73855,8.70231 -8.89167,7.96091 -12.69729,13.50494 -16.22381,23.6349 -2.30992,6.63525 -2.80392,9.72802 -2.80392,17.55428 0,7.82626 0.494,10.91903 2.80392,17.55428 3.51153,10.08689 7.29636,15.62042 16.16577,23.63483 6.94621,6.27661 8.34311,9.07133 5.80355,11.61089 -1.87903,1.87903 -4.17914,1.43275 -8.39996,-1.6298 z m 66.79996,1.6298 c -2.58783,-2.58783 -1.18968,-5.40159 5.78854,-11.64935 8.84869,-7.92242 12.65825,-13.4779 16.18078,-23.59637 5.27267,-15.14575 3.17346,-33.48486 -5.36104,-46.83503 -1.68093,-2.62941 -6.41246,-7.8733 -10.51451,-11.65308 -7.78455,-7.17298 -8.94001,-10.01658 -5.05872,-12.4495 2.50085,-1.56761 7.30747,1.29737 14.97133,8.92366 7.25933,7.22375 13.86775,18.71626 16.40617,28.53151 2.17059,8.39294 2.17059,23.46338 0,31.85632 -3.41839,13.21779 -12.96127,27.22339 -24.01259,35.24204 -4.22082,3.06255 -6.52093,3.50883 -8.39996,1.6298 z m -55.28721,-17.72199 c -8.337,-6.0408 -13.01991,-12.93757 -16.30248,-24.00951 -4.74244,-15.99603 2.33061,-36.18745 16.14061,-46.07658 5.83296,-4.17688 8.04856,-4.79244 10.04908,-2.79192 2.43258,2.43258 1.27588,5.49761 -3.55,9.4068 -7.96897,6.45524 -11.66149,11.9345 -13.88086,20.59754 -3.44609,13.45141 1.78964,27.02805 14.02642,36.37152 5.05986,3.86349 6.10803,7.54908 2.67018,9.38896 -2.84359,1.52184 -3.24187,1.39623 -9.15295,-2.88681 z m 42.28721,2.72199 c -2.43258,-2.43258 -1.27588,-5.49761 3.55,-9.4068 7.96897,-6.45524 11.66149,-11.9345 13.88086,-20.59754 3.44609,-13.45141 -1.78964,-27.02805 -14.02642,-36.37152 -5.41,-4.13084 -6.19874,-7.7406 -2.09946,-9.60836 2.2074,-1.00576 3.1393,-0.70449 7.84435,2.53601 8.50393,5.85688 13.72024,13.3811 17.04036,24.57971 4.74244,15.99603 -2.33061,36.18745 -16.14061,46.07658 -5.83296,4.17688 -8.04856,4.79244 -10.04908,2.79192 z M 599.325,941.88878 c -12.1895,-8.83003 -12.1895,-29.35313 0,-38.18316 2.20823,-1.59963 5.01734,-2.90842 6.24247,-2.90842 5.12354,0 5.77609,6.42915 0.91653,9.02991 -3.44844,1.84555 -7.44412,8.80733 -7.44412,12.97009 0,4.16276 3.99568,11.12454 7.44412,12.97009 4.85956,2.60076 4.20701,9.02991 -0.91653,9.02991 -1.22513,0 -4.03424,-1.30879 -6.24247,-2.90842 z m 19.72566,1.42141 c -1.7713,-2.13428 -0.49539,-5.91568 2.5451,-7.5429 3.44844,-1.84555 7.44412,-8.80733 7.44412,-12.97009 0,-4.16276 -3.99568,-11.12454 -7.44412,-12.97009 -4.85956,-2.60076 -4.20701,-9.02991 0.91653,-9.02991 3.77552,0 10.05334,5.4073 12.89251,11.10476 3.59375,7.21172 3.59375,14.57876 0,21.79048 -4.19401,8.41628 -13.03582,13.61608 -16.35414,9.61775 z m -9.83647,-15.82744 c -2.8208,-3.00261 -2.76512,-6.78189 0.14014,-9.51124 3.00261,-2.8208 6.78189,-2.76512 9.51124,0.14014 2.8208,3.00261 2.76512,6.78189 -0.14014,9.51124 -3.00261,2.8208 -6.78189,2.76512 -9.51124,-0.14014 z"
       style="fill:#000000" />
    <rect
       ry="25"
       y="834.28723"
       x="507.96844"
       height="177.14287"
       width="212.14287"
       id="rect4710"
       style="fill:none;stroke:#000000;stroke-opacity:1" />
  </g>
</svg>
